<?xml version="1.0" standalone="no"?>
<!DOCTYPE svg PUBLIC "-//W3C//DTD SVG 20010904//EN"
 "http://www.w3.org/TR/2001/REC-SVG-20010904/DTD/svg10.dtd">
<svg version="1.0" xmlns="http://www.w3.org/2000/svg"
 width="916.000000pt" height="1280.000000pt" viewBox="0 0 916.000000 1280.000000"
 preserveAspectRatio="xMidYMid meet">
<metadata>
Created by potrace 1.15, written by Peter Selinger 2001-2017
</metadata>
<g transform="translate(0.000000,1280.000000) scale(0.100000,-0.100000)"
fill="#ffeb3b" stroke="none">
<path d="M1730 12766 c0 -2 452 -788 1005 -1746 553 -957 1005 -1744 1005
-1748 0 -4 -9 -13 -20 -20 -38 -24 -60 -85 -60 -171 0 -44 5 -92 11 -108 15
-42 68 -92 109 -103 20 -6 197 -10 418 -10 l382 0 0 -73 0 -74 -50 -11 c-180
-42 -325 -191 -338 -347 l-5 -63 -86 -12 c-1652 -227 -2979 -1506 -3261 -3143
-52 -303 -69 -718 -41 -1007 154 -1618 1288 -2955 2856 -3365 161 -42 355 -78
545 -101 201 -24 639 -24 840 0 892 107 1663 478 2285 1101 617 616 983 1362
1102 2245 14 107 18 203 18 460 0 331 -6 414 -46 655 -170 1016 -768 1946
-1624 2524 -471 318 -985 525 -1523 612 l-140 23 -5 64 c-13 163 -151 308
-334 352 l-53 12 0 74 0 74 393 0 c360 0 395 2 432 19 80 37 105 84 105 197 0
83 -16 132 -54 167 l-25 23 995 1725 c548 948 1002 1736 1010 1752 l15 27
-843 0 -843 -1 -620 -1075 c-340 -591 -622 -1077 -625 -1078 -3 -2 -284 481
-626 1073 l-620 1076 -842 3 c-463 1 -842 0 -842 -2z m2931 -3616 c790 0 843
1 855 18 13 16 15 16 29 -2 10 -14 15 -43 15 -93 0 -65 -3 -77 -25 -98 l-24
-25 -396 0 -395 0 0 37 c0 49 -23 73 -71 73 -45 0 -69 -27 -69 -77 l0 -33
-390 0 -391 0 -24 25 c-22 21 -25 33 -25 101 0 59 4 82 17 97 17 18 18 18 34
-2 17 -21 19 -21 860 -21z m-59 -667 c48 -51 117 -16 119 60 0 37 2 39 11 20
14 -28 3 -86 -21 -107 -10 -9 -35 -19 -54 -23 -65 -10 -117 67 -89 134 5 13 8
7 10 -22 2 -23 12 -49 24 -62z"/>
</g>
</svg>
